<svg 
 xmlns="http://www.w3.org/2000/svg"
 xmlns:xlink="http://www.w3.org/1999/xlink"
 width="17px" height="17px">
<path fill-rule="evenodd"  fill="rgb(188, 0, 0)"
 d="M16.992,13.416 C17.028,13.692 16.944,13.932 16.740,14.136 L14.346,16.514 C14.238,16.634 14.097,16.736 13.923,16.820 C13.749,16.904 13.578,16.958 13.410,16.982 C13.398,16.982 13.362,16.985 13.302,16.991 C13.242,16.997 13.164,17.000 13.068,17.000 C12.840,17.000 12.471,16.961 11.961,16.883 C11.452,16.805 10.828,16.613 10.090,16.306 C9.352,16.000 8.515,15.541 7.579,14.929 C6.644,14.317 5.648,13.476 4.592,12.408 C3.752,11.579 3.056,10.787 2.504,10.030 C1.952,9.274 1.508,8.575 1.173,7.933 C0.837,7.290 0.585,6.708 0.417,6.186 C0.249,5.663 0.135,5.213 0.075,4.835 C0.015,4.457 -0.009,4.160 0.003,3.943 C0.015,3.727 0.021,3.608 0.021,3.583 C0.045,3.416 0.099,3.244 0.183,3.070 C0.267,2.896 0.369,2.755 0.489,2.647 L2.882,0.252 C3.050,0.084 3.242,-0.000 3.458,-0.000 C3.614,-0.000 3.752,0.045 3.872,0.135 C3.992,0.225 4.094,0.336 4.178,0.468 L6.104,4.124 C6.212,4.316 6.242,4.526 6.194,4.754 C6.146,4.982 6.044,5.174 5.888,5.330 L5.006,6.213 C4.982,6.237 4.961,6.276 4.943,6.330 C4.925,6.384 4.916,6.429 4.916,6.465 C4.964,6.717 5.072,7.005 5.240,7.329 C5.384,7.617 5.606,7.969 5.906,8.383 C6.206,8.797 6.632,9.274 7.183,9.814 C7.723,10.367 8.203,10.796 8.623,11.102 C9.043,11.408 9.394,11.633 9.676,11.777 C9.958,11.921 10.174,12.008 10.324,12.038 L10.549,12.083 C10.573,12.083 10.612,12.074 10.666,12.056 C10.720,12.038 10.759,12.017 10.783,11.994 L11.808,10.949 C12.025,10.757 12.276,10.661 12.564,10.661 C12.768,10.661 12.930,10.697 13.050,10.769 L13.068,10.769 L16.542,12.822 C16.794,12.978 16.944,13.176 16.992,13.416 Z"/>
</svg>